<svg xmlns="http://www.w3.org/2000/svg" width="200" height="41" viewBox="0 0 150 31">
<style type="text/css">
	.st0{fill:#1A202E;}
	.st1{fill:#FF4151;}
	.st2{fill:#E5E9F0;}
</style>
<g>
	<circle class="st0" cx="12.2" cy="15.5" r="12.2"/>
	<g>
		<g>
			<path class="st1" d="M12.3,20.6l6.3-4.6c0.4-0.3,0.4-0.7,0-1l-6.3-4.6c-0.2-0.1-0.3-0.3-0.4-0.6c0-0.2,0-0.5,0.2-0.7
				c0.1-0.2,0.3-0.3,0.6-0.4c0.2,0,0.5,0,0.7,0.2l8.1,5.9c0.5,0.4,0.5,1,0,1.4L13.3,22c-0.2,0.1-0.4,0.2-0.7,0.2
				c-0.2,0-0.4-0.2-0.6-0.4c-0.1-0.2-0.2-0.4-0.2-0.7C12,21,12.1,20.8,12.3,20.6z"/>
		</g>
		<g>
			<g>
				<path class="st2" d="M8.7,21.6l7-4.9c0.9-0.6,0.9-1.7,0-2.3l-7-4.9C7.8,8.9,7,9.2,7,10.4v10.4C7.1,21.8,7.8,22.2,8.7,21.6z"/>
			</g>
		</g>
	</g>
</g>
<g>
	<path class="st2" d="M27.3,21.9V8.8h5.4c0.1,0,0.3,0,0.5,0c0.2,0,0.4,0,0.6,0.1c0.8,0.1,1.4,0.4,1.9,0.8c0.5,0.4,0.9,0.9,1.1,1.5
		c0.2,0.6,0.4,1.2,0.4,2c0,1.1-0.3,2-0.8,2.7c-0.5,0.8-1.4,1.2-2.5,1.4l-0.9,0.1h-3.4v4.6H27.3z M29.5,15.3h3.1c0.1,0,0.3,0,0.4,0
		c0.2,0,0.3,0,0.4-0.1c0.4-0.1,0.6-0.3,0.9-0.5c0.2-0.2,0.4-0.5,0.4-0.8c0.1-0.3,0.1-0.6,0.1-0.9c0-0.3,0-0.6-0.1-0.9
		c-0.1-0.3-0.2-0.6-0.4-0.8c-0.2-0.2-0.5-0.4-0.9-0.5c-0.1,0-0.3-0.1-0.4-0.1c-0.2,0-0.3,0-0.4,0h-3.1V15.3z M34.8,21.9l-2.6-5.3
		l2.2-0.5l2.8,5.8H34.8z"/>
	<path class="st2" d="M43.7,22.2c-1,0-1.9-0.2-2.6-0.6c-0.8-0.4-1.3-1-1.8-1.8c-0.4-0.8-0.6-1.6-0.6-2.6c0-1.1,0.2-2,0.6-2.8
		c0.4-0.8,1-1.4,1.7-1.8c0.7-0.4,1.6-0.7,2.5-0.7c1,0,1.9,0.2,2.6,0.7c0.7,0.5,1.2,1.1,1.6,2c0.3,0.9,0.5,1.9,0.4,3.1H46v-0.8
		c0-1.1-0.2-1.8-0.6-2.3c-0.4-0.5-0.9-0.7-1.7-0.7c-0.9,0-1.6,0.3-2,0.8C41.3,15.1,41,15.9,41,17c0,1,0.2,1.8,0.7,2.3
		c0.4,0.5,1.1,0.8,1.9,0.8c0.5,0,1-0.1,1.4-0.4s0.7-0.6,0.9-1l2.2,0.7c-0.4,0.9-1,1.6-1.7,2.1C45.5,21.9,44.7,22.2,43.7,22.2z
		 M40.4,17.6V16h6.7v1.7H40.4z"/>
	<path class="st2" d="M52.6,21.9L48.5,8.8h2.3l3.4,10.9l3.5-10.9h2.3l-4.1,13.1H52.6z"/>
	<path class="st2" d="M63.2,22.2c-0.7,0-1.3-0.1-1.8-0.4c-0.5-0.3-0.9-0.6-1.1-1.1c-0.3-0.4-0.4-0.9-0.4-1.5c0-0.5,0.1-0.9,0.2-1.3
		c0.2-0.4,0.4-0.7,0.7-1c0.3-0.3,0.8-0.5,1.3-0.7c0.4-0.1,0.9-0.2,1.4-0.3c0.5-0.1,1.1-0.2,1.7-0.3c0.6-0.1,1.3-0.2,1.9-0.3
		l-0.8,0.4c0-0.7-0.1-1.2-0.5-1.5c-0.3-0.3-0.8-0.5-1.6-0.5c-0.4,0-0.9,0.1-1.3,0.3c-0.4,0.2-0.7,0.6-0.9,1.1l-2-0.6
		c0.2-0.8,0.7-1.5,1.4-2s1.6-0.8,2.8-0.8c0.9,0,1.6,0.1,2.3,0.4c0.7,0.3,1.2,0.8,1.5,1.4c0.2,0.3,0.3,0.7,0.3,1.1
		c0,0.4,0.1,0.8,0.1,1.2v6h-1.9v-2.1l0.3,0.3c-0.4,0.7-1,1.2-1.5,1.6C64.8,22,64.1,22.2,63.2,22.2z M63.7,20.4
		c0.5,0,0.9-0.1,1.3-0.3c0.4-0.2,0.6-0.4,0.8-0.6c0.2-0.3,0.4-0.5,0.4-0.7c0.1-0.3,0.2-0.6,0.2-1c0-0.4,0-0.7,0-0.9l0.7,0.2
		c-0.7,0.1-1.2,0.2-1.7,0.3c-0.5,0.1-0.9,0.2-1.2,0.2c-0.3,0.1-0.6,0.1-0.9,0.2c-0.3,0.1-0.5,0.2-0.6,0.3c-0.2,0.1-0.3,0.3-0.4,0.4
		c-0.1,0.2-0.1,0.3-0.1,0.6c0,0.2,0.1,0.5,0.2,0.6c0.1,0.2,0.3,0.3,0.5,0.4C63,20.4,63.3,20.4,63.7,20.4z"/>
	<path class="st2" d="M70.9,21.9v-9.8h2v3h0.3v6.8H70.9z M77.7,21.9v-4.7c0-0.3,0-0.7-0.1-1c0-0.4-0.1-0.7-0.3-1.1
		c-0.2-0.3-0.4-0.6-0.7-0.9c-0.3-0.2-0.7-0.3-1.2-0.3c-0.3,0-0.6,0-0.8,0.1c-0.3,0.1-0.5,0.2-0.7,0.5c-0.2,0.2-0.4,0.5-0.5,0.9
		c-0.1,0.4-0.2,0.9-0.2,1.5l-1.3-0.6c0-0.8,0.2-1.6,0.5-2.3c0.3-0.7,0.8-1.2,1.4-1.6c0.6-0.4,1.4-0.6,2.3-0.6c0.7,0,1.3,0.1,1.8,0.4
		c0.5,0.2,0.8,0.6,1.1,0.9c0.3,0.4,0.5,0.8,0.6,1.2c0.1,0.4,0.2,0.8,0.3,1.2c0,0.4,0.1,0.7,0.1,0.9v5.5H77.7z"/>
	<path class="st2" d="M86.4,22.2c-1,0-1.9-0.2-2.6-0.7c-0.7-0.5-1.3-1.1-1.6-1.8c-0.4-0.8-0.6-1.7-0.6-2.7c0-1,0.2-1.9,0.6-2.7
		c0.4-0.8,0.9-1.4,1.7-1.8c0.7-0.4,1.6-0.7,2.6-0.7c1.1,0,2.1,0.3,2.8,0.8s1.3,1.3,1.5,2.3l-2.2,0.6c-0.2-0.5-0.5-0.9-0.8-1.2
		c-0.4-0.3-0.8-0.4-1.3-0.4c-0.6,0-1,0.1-1.4,0.4c-0.4,0.3-0.6,0.6-0.8,1.1c-0.2,0.5-0.3,1-0.3,1.6c0,0.9,0.2,1.7,0.6,2.3
		c0.4,0.6,1,0.9,1.9,0.9c0.6,0,1-0.1,1.4-0.4c0.3-0.3,0.6-0.7,0.8-1.2l2.2,0.5c-0.3,1-0.8,1.8-1.6,2.3
		C88.4,21.9,87.5,22.2,86.4,22.2z"/>
	<path class="st2" d="M96.8,22.2c-1,0-1.9-0.2-2.6-0.6s-1.3-1-1.8-1.8c-0.4-0.8-0.6-1.6-0.6-2.6c0-1.1,0.2-2,0.6-2.8
		c0.4-0.8,1-1.4,1.7-1.8c0.7-0.4,1.6-0.7,2.5-0.7c1,0,1.9,0.2,2.6,0.7c0.7,0.5,1.2,1.1,1.6,2c0.3,0.9,0.5,1.9,0.4,3.1H99v-0.8
		c0-1.1-0.2-1.8-0.6-2.3c-0.4-0.5-0.9-0.7-1.7-0.7c-0.9,0-1.6,0.3-2,0.8c-0.4,0.6-0.7,1.4-0.7,2.4c0,1,0.2,1.8,0.7,2.3
		c0.4,0.5,1.1,0.8,1.9,0.8c0.5,0,1-0.1,1.4-0.4c0.4-0.2,0.7-0.6,0.9-1l2.2,0.7c-0.4,0.9-1,1.6-1.7,2.1
		C98.6,21.9,97.7,22.2,96.8,22.2z M93.4,17.6V16h6.7v1.7H93.4z"/>
	<path class="st2" d="M107.2,22.2c-0.9,0-1.7-0.2-2.4-0.7c-0.7-0.5-1.2-1.1-1.6-1.9c-0.4-0.8-0.6-1.7-0.6-2.6c0-1,0.2-1.9,0.6-2.7
		c0.4-0.8,0.9-1.4,1.6-1.8c0.7-0.5,1.5-0.7,2.4-0.7c0.9,0,1.7,0.2,2.3,0.7c0.6,0.5,1.1,1.1,1.4,1.8c0.3,0.8,0.5,1.7,0.5,2.7
		c0,1-0.2,1.9-0.5,2.6c-0.3,0.8-0.8,1.4-1.5,1.9C108.9,21.9,108.1,22.2,107.2,22.2z M107.5,20.2c0.6,0,1.1-0.1,1.4-0.4
		c0.4-0.3,0.6-0.6,0.8-1.1c0.2-0.5,0.2-1,0.2-1.7c0-0.6-0.1-1.2-0.2-1.7c-0.2-0.5-0.4-0.9-0.8-1.1c-0.4-0.3-0.8-0.4-1.4-0.4
		c-0.6,0-1.1,0.1-1.5,0.4c-0.4,0.3-0.7,0.7-0.8,1.2c-0.2,0.5-0.3,1-0.3,1.6c0,0.6,0.1,1.1,0.3,1.6c0.2,0.5,0.5,0.9,0.8,1.2
		C106.5,20.1,106.9,20.2,107.5,20.2z M110,21.9V15h-0.3V8.8h2.2v13.1H110z"/>
	<path class="st1" d="M117.9,21.9V11.6h1.6l3.6,7.3l3.6-7.3h1.6v10.3h-1.6v-6.6l-3.2,6.6h-0.7l-3.2-6.6v6.6H117.9z"/>
	<path class="st1" d="M130.1,21.9V11.6h1.6l3.6,7.3l3.6-7.3h1.6v10.3h-1.6v-6.6l-3.2,6.6h-0.7l-3.2-6.6v6.6H130.1z"/>
	<path class="st1" d="M144.9,21.9v-8.7h-3.3v-1.6h8.4v1.6h-3.3v8.7H144.9z"/>
</g>
</svg>
