<?xml version="1.0" encoding="UTF-8"?>
<svg width="150px" height="31px" viewBox="0 0 150 31" xmlns="http://www.w3.org/2000/svg">
	<style type="text/css">.st0{fill:#1A202E;}
		.st1{fill:#FF4151;}
		.st2{fill:#E5E9F0;}</style>
	<circle class="st0" cx="12.2" cy="15.5" r="12.2"/>
	<path class="st1" d="m12.3 20.6 6.3-4.6c0.4-0.3 0.4-0.7 0-1l-6.3-4.6c-0.2-0.1-0.3-0.3-0.4-0.6 0-0.2 0-0.5 0.2-0.7 0.1-0.2 0.3-0.3 0.6-0.4 0.2 0 0.5 0 0.7 0.2l8.1 5.9c0.5 0.4 0.5 1 0 1.4l-8.2 5.8c-0.2 0.1-0.4 0.2-0.7 0.2-0.2 0-0.4-0.2-0.6-0.4-0.1-0.2-0.2-0.4-0.2-0.7 0.2-0.1 0.3-0.3 0.5-0.5z"/>
	<path class="st2" d="m8.7 21.6 7-4.9c0.9-0.6 0.9-1.7 0-2.3l-7-4.9c-0.9-0.6-1.7-0.3-1.7 0.9v10.4c0.1 1 0.8 1.4 1.7 0.8z"/>
	<path class="st0" d="m27.3 21.9v-13.1h5.4 0.5c0.2 0 0.4 0 0.6 0.1 0.8 0.1 1.4 0.4 1.9 0.8s0.9 0.9 1.1 1.5 0.4 1.2 0.4 2c0 1.1-0.3 2-0.8 2.7-0.5 0.8-1.4 1.2-2.5 1.4l-0.9 0.1h-3.4v4.6h-2.3zm2.2-6.6h3.1 0.4c0.2 0 0.3 0 0.4-0.1 0.4-0.1 0.6-0.3 0.9-0.5 0.2-0.2 0.4-0.5 0.4-0.8 0.1-0.3 0.1-0.6 0.1-0.9s0-0.6-0.1-0.9-0.2-0.6-0.4-0.8-0.5-0.4-0.9-0.5c-0.1 0-0.3-0.1-0.4-0.1h-0.4-3.1v4.6zm5.3 6.6-2.6-5.3 2.2-0.5 2.8 5.8h-2.4z"/>
	<path class="st0" d="m43.7 22.2c-1 0-1.9-0.2-2.6-0.6-0.8-0.4-1.3-1-1.8-1.8-0.4-0.8-0.6-1.6-0.6-2.6 0-1.1 0.2-2 0.6-2.8s1-1.4 1.7-1.8 1.6-0.7 2.5-0.7c1 0 1.9 0.2 2.6 0.7s1.2 1.1 1.6 2c0.3 0.9 0.5 1.9 0.4 3.1h-2.1v-0.8c0-1.1-0.2-1.8-0.6-2.3s-0.9-0.7-1.7-0.7c-0.9 0-1.6 0.3-2 0.8-0.4 0.4-0.7 1.2-0.7 2.3 0 1 0.2 1.8 0.7 2.3 0.4 0.5 1.1 0.8 1.9 0.8 0.5 0 1-0.1 1.4-0.4s0.7-0.6 0.9-1l2.2 0.7c-0.4 0.9-1 1.6-1.7 2.1-0.9 0.4-1.7 0.7-2.7 0.7zm-3.3-4.6v-1.6h6.7v1.7h-6.7z"/>
	<path class="st0" d="m52.6 21.9-4.1-13.1h2.3l3.4 10.9 3.5-10.9h2.3l-4.1 13.1h-3.3z"/>
	<path class="st0" d="m63.2 22.2c-0.7 0-1.3-0.1-1.8-0.4s-0.9-0.6-1.1-1.1c-0.3-0.4-0.4-0.9-0.4-1.5 0-0.5 0.1-0.9 0.2-1.3 0.2-0.4 0.4-0.7 0.7-1s0.8-0.5 1.3-0.7c0.4-0.1 0.9-0.2 1.4-0.3s1.1-0.2 1.7-0.3 1.3-0.2 1.9-0.3l-0.8 0.4c0-0.7-0.1-1.2-0.5-1.5-0.3-0.3-0.8-0.5-1.6-0.5-0.4 0-0.9 0.1-1.3 0.3s-0.7 0.6-0.9 1.1l-2-0.6c0.2-0.8 0.7-1.5 1.4-2s1.6-0.8 2.8-0.8c0.9 0 1.6 0.1 2.3 0.4s1.2 0.8 1.5 1.4c0.2 0.3 0.3 0.7 0.3 1.1s0.1 0.8 0.1 1.2v6h-1.9v-2.1l0.3 0.3c-0.4 0.7-1 1.2-1.5 1.6s-1.2 0.6-2.1 0.6zm0.5-1.8c0.5 0 0.9-0.1 1.3-0.3s0.6-0.4 0.8-0.6c0.2-0.3 0.4-0.5 0.4-0.7 0.1-0.3 0.2-0.6 0.2-1v-0.9l0.7 0.2c-0.7 0.1-1.2 0.2-1.7 0.3s-0.9 0.2-1.2 0.2c-0.3 0.1-0.6 0.1-0.9 0.2s-0.5 0.2-0.6 0.3c-0.2 0.1-0.3 0.3-0.4 0.4-0.1 0.2-0.1 0.3-0.1 0.6 0 0.2 0.1 0.5 0.2 0.6 0.1 0.2 0.3 0.3 0.5 0.4 0.1 0.3 0.4 0.3 0.8 0.3z"/>
	<path class="st0" d="m70.9 21.9v-9.8h2v3h0.3v6.8h-2.3zm6.8 0v-4.7c0-0.3 0-0.7-0.1-1 0-0.4-0.1-0.7-0.3-1.1-0.2-0.3-0.4-0.6-0.7-0.9-0.3-0.2-0.7-0.3-1.2-0.3-0.3 0-0.6 0-0.8 0.1-0.3 0.1-0.5 0.2-0.7 0.5-0.2 0.2-0.4 0.5-0.5 0.9s-0.2 0.9-0.2 1.5l-1.3-0.6c0-0.8 0.2-1.6 0.5-2.3s0.8-1.2 1.4-1.6 1.4-0.6 2.3-0.6c0.7 0 1.3 0.1 1.8 0.4 0.5 0.2 0.8 0.6 1.1 0.9 0.3 0.4 0.5 0.8 0.6 1.2l0.3 1.2c0 0.4 0.1 0.7 0.1 0.9v5.5h-2.3z"/>
	<path class="st0" d="m86.4 22.2c-1 0-1.9-0.2-2.6-0.7s-1.3-1.1-1.6-1.8c-0.4-0.8-0.6-1.7-0.6-2.7s0.2-1.9 0.6-2.7 0.9-1.4 1.7-1.8c0.7-0.4 1.6-0.7 2.6-0.7 1.1 0 2.1 0.3 2.8 0.8s1.3 1.3 1.5 2.3l-2.2 0.6c-0.2-0.5-0.5-0.9-0.8-1.2-0.4-0.3-0.8-0.4-1.3-0.4-0.6 0-1 0.1-1.4 0.4s-0.6 0.6-0.8 1.1-0.3 1-0.3 1.6c0 0.9 0.2 1.7 0.6 2.3s1 0.9 1.9 0.9c0.6 0 1-0.1 1.4-0.4 0.3-0.3 0.6-0.7 0.8-1.2l2.2 0.5c-0.3 1-0.8 1.8-1.6 2.3-0.9 0.5-1.8 0.8-2.9 0.8z"/>
	<path class="st0" d="m96.8 22.2c-1 0-1.9-0.2-2.6-0.6s-1.3-1-1.8-1.8c-0.4-0.8-0.6-1.6-0.6-2.6 0-1.1 0.2-2 0.6-2.8s1-1.4 1.7-1.8 1.6-0.7 2.5-0.7c1 0 1.9 0.2 2.6 0.7s1.2 1.1 1.6 2c0.3 0.9 0.5 1.9 0.4 3.1h-2.2v-0.8c0-1.1-0.2-1.8-0.6-2.3s-0.9-0.7-1.7-0.7c-0.9 0-1.6 0.3-2 0.8-0.4 0.6-0.7 1.4-0.7 2.4s0.2 1.8 0.7 2.3c0.4 0.5 1.1 0.8 1.9 0.8 0.5 0 1-0.1 1.4-0.4 0.4-0.2 0.7-0.6 0.9-1l2.2 0.7c-0.4 0.9-1 1.6-1.7 2.1-0.8 0.3-1.7 0.6-2.6 0.6zm-3.4-4.6v-1.6h6.7v1.7h-6.7z"/>
	<path class="st0" d="m107.2 22.2c-0.9 0-1.7-0.2-2.4-0.7s-1.2-1.1-1.6-1.9-0.6-1.7-0.6-2.6c0-1 0.2-1.9 0.6-2.7s0.9-1.4 1.6-1.8c0.7-0.5 1.5-0.7 2.4-0.7s1.7 0.2 2.3 0.7 1.1 1.1 1.4 1.8c0.3 0.8 0.5 1.7 0.5 2.7s-0.2 1.9-0.5 2.6c-0.3 0.8-0.8 1.4-1.5 1.9-0.5 0.4-1.3 0.7-2.2 0.7zm0.3-2c0.6 0 1.1-0.1 1.4-0.4 0.4-0.3 0.6-0.6 0.8-1.1s0.2-1 0.2-1.7c0-0.6-0.1-1.2-0.2-1.7-0.2-0.5-0.4-0.9-0.8-1.1-0.4-0.3-0.8-0.4-1.4-0.4s-1.1 0.1-1.5 0.4-0.7 0.7-0.8 1.2c-0.2 0.5-0.3 1-0.3 1.6s0.1 1.1 0.3 1.6 0.5 0.9 0.8 1.2c0.5 0.3 0.9 0.4 1.5 0.4zm2.5 1.7v-6.9h-0.3v-6.2h2.2v13.1h-1.9z"/>
	<path class="st1" d="m117.9 21.9v-10.3h1.6l3.6 7.3 3.6-7.3h1.6v10.3h-1.6v-6.6l-3.2 6.6h-0.7l-3.2-6.6v6.6h-1.7z"/>
	<path class="st1" d="m130.1 21.9v-10.3h1.6l3.6 7.3 3.6-7.3h1.6v10.3h-1.6v-6.6l-3.2 6.6h-0.7l-3.2-6.6v6.6h-1.7z"/>
	<path class="st1" d="m144.9 21.9v-8.7h-3.3v-1.6h8.4v1.6h-3.3v8.7h-1.8z"/>
</svg>