<?xml version="1.0" encoding="UTF-8"?>
<svg height="24px" width="24px" enable-background="new 0 0 31.2 24" version="1.1" viewBox="0 0 31.2 24" xml:space="preserve" xmlns="http://www.w3.org/2000/svg">
<style type="text/css">
	.st0{fill-rule:evenodd;clip-rule:evenodd;fill:#F49000;}
	.st1{fill-rule:evenodd;clip-rule:evenodd;fill:#FFFFFF;filter:url(#b);}
	.st2{mask:url(#a);}
	.st3{fill-rule:evenodd;clip-rule:evenodd;fill:#50C800;}
	.st4{fill-rule:evenodd;clip-rule:evenodd;fill:#8EE000;}
	.st5{fill-rule:evenodd;clip-rule:evenodd;fill:#FFC200;}
	.st6{fill-rule:evenodd;clip-rule:evenodd;fill:#B66E28;}
	.st7{fill-rule:evenodd;clip-rule:evenodd;fill:#FEFEFE;}
	.st8{fill-rule:evenodd;clip-rule:evenodd;fill:#FFDE00;}
	.st9{fill-rule:evenodd;clip-rule:evenodd;fill:#4C4C4C;}
</style>

	<path class="st0" d="m6.54 20.62c0.46-0.5 1.24-0.52 1.73-0.06l1.41 1.32c0.5 0.46 0.52 1.24 0.06 1.74s-1.24 0.52-1.73 0.06l-1.41-1.32c-0.49-0.47-0.52-1.25-0.06-1.74z"/>
	<path class="st0" d="m24.73 20.62c-0.46-0.5-1.24-0.52-1.73-0.06l-1.41 1.32c-0.5 0.46-0.52 1.24-0.06 1.74s1.24 0.52 1.73 0.06l1.41-1.32c0.5-0.47 0.52-1.25 0.06-1.74z"/>
	<defs>
		<filter id="b" x="0" y="0" width="31.2" height="22.54" filterUnits="userSpaceOnUse">
			<feColorMatrix values="1 0 0 0 0  0 1 0 0 0  0 0 1 0 0  0 0 0 1 0"/>
		</filter>
	</defs>
	
		<mask id="a" x="0" y="0" width="31.2" height="22.54" maskUnits="userSpaceOnUse">
		<path class="st1" d="M0,0h31.2v22.54H0V0z"/>
	</mask>
	<g class="st2">
		<path class="st3" d="m29.81 6.06-4.7 1.17v-4.02c0-0.43-0.09-0.86-0.26-1.25-0.69-1.62-2.57-2.38-4.19-1.69-2.42 1.03-4.08 1.55-4.99 1.55s-2.6-0.52-5.07-1.57c-0.39-0.16-0.81-0.25-1.24-0.25-1.76 0-3.19 1.43-3.19 3.19v4.05l-4.78-1.18c-0.74-0.19-1.44 0.4-1.39 1.16 0.25 3.59 2.78 6.68 6.34 7.64 0.84 4.37 4.68 7.67 9.3 7.67s8.47-3.31 9.3-7.69c3.51-0.99 6.01-4.06 6.26-7.62 0.05-0.76-0.65-1.35-1.39-1.16z"/>
	</g>
	<path class="st4" d="m21.9 3.61c-0.04-0.31-0.14-0.61-0.3-0.88-0.11-0.19-0.38-0.22-0.53-0.06l-0.54 0.6h-0.01c0.01-0.45-0.1-0.89-0.33-1.29-0.11-0.19-0.38-0.22-0.53-0.06l-2.61 2.9c-0.83 0.58-2 0.57-2.84-0.02l-2.64-2.88c-0.15-0.17-0.36-0.14-0.47 0.06-0.24 0.42-0.35 0.9-0.33 1.37h-0.02l-0.61-0.68c-0.15-0.16-0.42-0.14-0.53 0.06-0.19 0.32-0.29 0.68-0.32 1.04-1.11 0.6-1.86 1.77-1.86 3.12v2.29c0 1.96 1.59 3.54 3.54 3.54h0.27c1.47 0 2.73-0.89 3.26-2.16 1.11-0.01 1.91-0.01 2.39-0.01 0.56 1.23 1.79 2.09 3.23 2.09h0.25c1.96 0 3.54-1.59 3.54-3.54v-2.28c0.01-1.42-0.82-2.64-2.01-3.21z"/>
	<path class="st5" d="m13.82 9.77c0.16-0.85 0.94-1.51 1.91-1.51 0.87 0 1.65 0.66 1.8 1.51v0.11l-1.86 0.32-1.86-0.32v-0.11z"/>
	<path class="st0" d="m15.67 10.19-1.34-0.23v2.24c0 0.74 0.6 1.34 1.34 1.34s1.34-0.6 1.34-1.34v-2.23l-1.34 0.22z"/>
	<path class="st6" d="m15.67 10.19-1.02-0.17c-0.01 0.06-0.02 0.11-0.02 0.17v1.49c0 0.57 0.47 1.04 1.04 1.04s1.04-0.47 1.04-1.04v-1.49c0-0.06-0.01-0.12-0.02-0.17l-1.02 0.17z"/>
	<path class="st7" d="m22.81 8.49v-1.2c0-1.44-1.16-2.6-2.6-2.6s-2.6 1.16-2.6 2.6v1.57c0 0.45 0.11 0.87 0.31 1.23 1.78-0.76 3.42-1.3 4.89-1.6z"/>
	<path class="st8" d="m16.05 9.12c-0.03 0-0.06-0.01-0.09-0.02-0.21-0.08-0.42-0.08-0.63 0-0.14 0.05-0.29-0.02-0.34-0.16-0.06-0.14 0.01-0.29 0.15-0.34 0.33-0.12 0.67-0.12 1 0 0.14 0.05 0.21 0.2 0.16 0.34-0.04 0.11-0.15 0.18-0.25 0.18z"/>
	<path class="st7" d="m10.99 4.68c-1.44 0-2.6 1.16-2.6 2.6v1.19c1.47 0.29 3.11 0.83 4.9 1.59 0.19-0.36 0.3-0.77 0.3-1.21v-1.57c0-1.43-1.16-2.6-2.6-2.6z"/>
	<path class="st9" d="m18.98 9.65c0.7-0.27 1.37-0.51 2.02-0.71 0.01-0.07 0.02-0.14 0.02-0.21v-1.33c0-0.68-0.55-1.23-1.23-1.23-0.23 0-0.44 0.06-0.62 0.17 0.13 0.14 0.21 0.33 0.21 0.54 0 0.43-0.35 0.78-0.78 0.78h-0.04v1.08c0.01 0.36 0.17 0.69 0.42 0.91z"/>
	<path class="st4" d="m16.84 17.85h-2.38c-0.13 0-0.22 0.12-0.18 0.23 0.19 0.55 0.74 0.94 1.37 0.94s1.18-0.38 1.37-0.94c0.03-0.11-0.06-0.23-0.18-0.23zm2.08-2h-2.38c-0.13 0-0.22 0.12-0.18 0.23 0.19 0.55 0.74 0.94 1.37 0.94s1.18-0.38 1.37-0.94c0.03-0.12-0.06-0.23-0.18-0.23zm-3.99 0.23c0.04-0.12-0.05-0.23-0.18-0.23h-2.38c-0.13 0-0.22 0.12-0.18 0.23 0.19 0.55 0.74 0.94 1.37 0.94 0.63-0.01 1.18-0.39 1.37-0.94z"/>
	<path class="st9" d="m11.4 6.17c-0.19 0-0.37 0.04-0.53 0.12 0.16 0.14 0.27 0.35 0.27 0.59 0 0.43-0.35 0.78-0.78 0.78-0.06 0-0.13-0.01-0.19-0.02v1.11c0 0.06 0.01 0.12 0.02 0.18 0.66 0.2 1.34 0.43 2.05 0.71 0.24-0.22 0.39-0.54 0.39-0.89v-1.35c0-0.68-0.55-1.23-1.23-1.23z"/>

</svg>
