<?xml version="1.0" encoding="utf-8"?>
<!-- Generator: Adobe Illustrator 27.0.0, SVG Export Plug-In . SVG Version: 6.00 Build 0)  -->
<svg version="1.1" id="Layer_1" xmlns="http://www.w3.org/2000/svg" xmlns:xlink="http://www.w3.org/1999/xlink" x="0px" y="0px"
	 viewBox="0 0 24 24" style="enable-background:new 0 0 24 24;" xml:space="preserve">
<style type="text/css">
	.st0{fill:#001E36;}
	.st1{fill:#31A8FF;}
</style>
<g>
	<circle class="st0" cx="12" cy="12" r="12"/>
	<g id="Layer_2_1_">
		<g id="Lr">
			<path class="st1" d="M12.61,16.96h-6.5c-0.12,0-0.16-0.06-0.16-0.18V6.3C5.94,6.23,5.99,6.16,6.07,6.15c0.01,0,0.02,0,0.04,0
				h2.01c0.05-0.01,0.12,0.03,0.12,0.09c0,0.01,0,0.02,0,0.03v8.61h4.74c0.11,0,0.13,0.05,0.12,0.14l-0.3,1.79
				c0,0.05-0.03,0.1-0.06,0.12C12.69,16.95,12.65,16.96,12.61,16.96z"/>
			<path class="st1" d="M14.26,8.76h1.8c0.11,0,0.18,0.07,0.21,0.16c0.04,0.07,0.07,0.15,0.09,0.24c0.02,0.11,0.04,0.21,0.05,0.32
				c0.01,0.12,0.02,0.24,0.02,0.36c0.31-0.36,0.68-0.65,1.09-0.88c0.47-0.26,1-0.38,1.53-0.36c0.07-0.01,0.13,0.04,0.14,0.12
				c0,0.01,0,0.02,0,0.04v2.01c0,0.09-0.05,0.12-0.16,0.12c-0.66-0.04-1.33,0.09-1.94,0.35c-0.2,0.1-0.4,0.21-0.56,0.38v5.23
				c0,0.11-0.04,0.14-0.13,0.14h-2c-0.09,0.01-0.15-0.04-0.16-0.12c0-0.01,0-0.03,0-0.04v-5.68c0-0.25,0-0.5-0.01-0.77
				c-0.01-0.27-0.01-0.54-0.02-0.8c-0.01-0.23-0.03-0.45-0.06-0.68c-0.01-0.05,0.02-0.11,0.07-0.12
				C14.23,8.75,14.24,8.75,14.26,8.76L14.26,8.76z"/>
		</g>
	</g>
</g>
</svg>
