<?xml version="1.0" encoding="UTF-8"?>
<svg enable-background="new 0 0 24 24" version="1.1" viewBox="0 0 24 24" xml:space="preserve" xmlns="http://www.w3.org/2000/svg">
<style type="text/css">
	.st0{fill:#001E36;}
	.st1{fill:#31A8FF;}
</style>

	<circle class="st0" cx="12" cy="12" r="12"/>


	<path class="st1" d="m12.61 16.96h-6.5c-0.12 0-0.16-0.06-0.16-0.18v-10.48c-0.01-0.07 0.04-0.14 0.12-0.15h0.04 2.01c0.05-0.01 0.12 0.03 0.12 0.09v0.03 8.61h4.74c0.11 0 0.13 0.05 0.12 0.14l-0.3 1.79c0 0.05-0.03 0.1-0.06 0.12-0.05 0.02-0.09 0.03-0.13 0.03z"/>
	<path class="st1" d="m14.26 8.76h1.8c0.11 0 0.18 0.07 0.21 0.16 0.04 0.07 0.07 0.15 0.09 0.24 0.02 0.11 0.04 0.21 0.05 0.32 0.01 0.12 0.02 0.24 0.02 0.36 0.31-0.36 0.68-0.65 1.09-0.88 0.47-0.26 1-0.38 1.53-0.36 0.07-0.01 0.13 0.04 0.14 0.12v0.04 2.01c0 0.09-0.05 0.12-0.16 0.12-0.66-0.04-1.33 0.09-1.94 0.35-0.2 0.1-0.4 0.21-0.56 0.38v5.23c0 0.11-0.04 0.14-0.13 0.14h-2c-0.09 0.01-0.15-0.04-0.16-0.12v-0.04-5.68c0-0.25 0-0.5-0.01-0.77s-0.01-0.54-0.02-0.8c-0.01-0.23-0.03-0.45-0.06-0.68-0.01-0.05 0.02-0.11 0.07-0.12 0.01-0.03 0.02-0.03 0.04-0.02z"/>



</svg>
