<?xml version="1.0" encoding="UTF-8"?>
<svg enable-background="new 0 0 24 24" version="1.1" viewBox="0 0 24 24" xml:space="preserve" xmlns="http://www.w3.org/2000/svg">
<style type="text/css">
	.st0{fill:#1A202E;}
	.st1{fill:#E5E9F0;}
	.st2{fill:#FF4151;}
</style>

	<ellipse class="st0" transform="matrix(.996 -.0898 .0898 .996 -1.0292 1.1262)" cx="12" cy="12" rx="12" ry="12"/>

	<path class="st1" d="m17.54 12c0.75 0 1.31 0.69 1.15 1.43-0.06 0.27-0.13 0.54-0.22 0.79-0.92 2.65-3.43 4.55-6.4 4.55-3.88 0-7.01-3.27-6.76-7.21 0.21-3.43 3.04-6.19 6.48-6.33 2.77-0.11 5.19 1.44 6.34 3.73 0.26 0.51 0.09 1.14-0.38 1.47l-0.01 0.01c-0.6 0.42-1.41 0.19-1.74-0.46-0.75-1.46-2.28-2.44-4.04-2.4-2.28 0.06-4.19 1.91-4.3 4.19-0.12 2.54 1.9 4.63 4.41 4.63 1.63 0 3.05-0.88 3.81-2.19h-3.66v-2.21h5.32z"/>
	<path class="st2" d="m15.09 12.3-2.58 1.83c-0.34 0.24-0.81 0-0.81-0.42v-3.65c0-0.42 0.47-0.66 0.81-0.42l2.58 1.82c0.29 0.21 0.29 0.64 0 0.84z"/>


</svg>
