<?xml version="1.0" encoding="UTF-8"?>
<svg enable-background="new 0 0 24 24" version="1.1" viewBox="0 0 24 24" xml:space="preserve" xmlns="http://www.w3.org/2000/svg">
<style type="text/css">
	.st0{fill:#CB1E30;}
	.st1{fill:#FFFFFF;}
</style>

	<path class="st0" d="M18.74,24H5.26C2.35,24,0,21.65,0,18.74V5.26C0,2.35,2.35,0,5.26,0h13.48C21.65,0,24,2.35,24,5.26v13.48   C24,21.65,21.65,24,18.74,24z"/>
	<path class="st1" d="m16.57 15.9h1.56v4.44c0 0.37-0.3 0.67-0.67 0.67h-11.22c-0.37 0-0.67-0.3-0.67-0.67v-16.68c0-0.37 0.3-0.67 0.67-0.67h11.22c0.37 0 0.67 0.3 0.67 0.67v4.44h-1.56v-3.55h-9.43v14.9h9.43v-3.55zm-0.01-6.24v1.56h4.33v-1.56h-4.33zm0 4.68h4.33v-1.56h-4.33v1.56zm-3.26-6.27-1.46 2.42-1.46-2.42h-1.83l2.38 3.94-2.38 3.94h1.84l1.46-2.42 1.46 2.42h1.84l-2.38-3.94 2.38-3.94h-1.85z"/>

</svg>
