<?xml version="1.0" encoding="utf-8"?>
<!-- Generator: Adobe Illustrator 27.0.0, SVG Export Plug-In . SVG Version: 6.00 Build 0)  -->
<svg version="1.1" id="Layer_1" xmlns="http://www.w3.org/2000/svg" xmlns:xlink="http://www.w3.org/1999/xlink" x="0px" y="0px"
	 viewBox="0 0 24 24" style="enable-background:new 0 0 24 24;" xml:space="preserve">
<style type="text/css">
	.st0{fill:#FF4500;}
	.st1{fill:#FFFFFF;}
</style>
<g id="Artwork_00000031890614610308662690000014763657380832232850_">
	<g>
		<circle class="st0" cx="12" cy="12" r="12"/>
		<path class="st1" d="M20,12c0-0.97-0.79-1.75-1.75-1.75c-0.48,0-0.9,0.18-1.21,0.49c-1.19-0.86-2.85-1.42-4.67-1.49l0.8-3.75
			l2.6,0.55c0.03,0.66,0.58,1.19,1.25,1.19c0.69,0,1.25-0.56,1.25-1.25c0-0.69-0.56-1.25-1.25-1.25c-0.49,0-0.91,0.28-1.11,0.7
			L13,4.83c-0.08-0.01-0.17,0-0.24,0.04s-0.11,0.11-0.14,0.2l-0.88,4.18c-1.87,0.06-3.54,0.6-4.74,1.49
			c-0.31-0.29-0.74-0.49-1.21-0.49c-0.97,0-1.75,0.79-1.75,1.75c0,0.72,0.42,1.32,1.04,1.6c-0.03,0.17-0.04,0.35-0.04,0.53
			c0,2.69,3.13,4.87,7,4.87c3.87,0,7-2.18,7-4.87c0-0.18-0.01-0.35-0.04-0.52C19.56,13.33,20,12.72,20,12z M8,13.25
			C8,12.56,8.56,12,9.25,12c0.69,0,1.25,0.56,1.25,1.25S9.94,14.5,9.25,14.5C8.56,14.5,8,13.94,8,13.25z M14.98,16.55
			c-0.86,0.86-2.48,0.91-2.96,0.91c-0.48,0-2.12-0.07-2.96-0.91c-0.13-0.13-0.13-0.34,0-0.46c0.13-0.13,0.34-0.13,0.46,0
			c0.53,0.53,1.68,0.73,2.51,0.73c0.83,0,1.96-0.2,2.51-0.73c0.13-0.13,0.34-0.13,0.46,0C15.1,16.22,15.1,16.42,14.98,16.55z
			 M14.75,14.5c-0.69,0-1.25-0.56-1.25-1.25S14.06,12,14.75,12c0.69,0,1.25,0.56,1.25,1.25S15.44,14.5,14.75,14.5z"/>
	</g>
</g>
</svg>
