<?xml version="1.0" encoding="UTF-8"?>
<svg enable-background="new 0 0 24 24" version="1.1" viewBox="0 0 24 24" xml:space="preserve" xmlns="http://www.w3.org/2000/svg">
<style type="text/css">
	.st0{fill:#FF4500;}
	.st1{fill:#FFFFFF;}
</style>


	<circle class="st0" cx="12" cy="12" r="12"/>
	<path class="st1" d="m20 12c0-0.97-0.79-1.75-1.75-1.75-0.48 0-0.9 0.18-1.21 0.49-1.19-0.86-2.85-1.42-4.67-1.49l0.8-3.75 2.6 0.55c0.03 0.66 0.58 1.19 1.25 1.19 0.69 0 1.25-0.56 1.25-1.25s-0.56-1.25-1.25-1.25c-0.49 0-0.91 0.28-1.11 0.7l-2.91-0.61c-0.08-0.01-0.17 0-0.24 0.04s-0.11 0.11-0.14 0.2l-0.88 4.18c-1.87 0.06-3.54 0.6-4.74 1.49-0.31-0.29-0.74-0.49-1.21-0.49-0.97 0-1.75 0.79-1.75 1.75 0 0.72 0.42 1.32 1.04 1.6-0.03 0.17-0.04 0.35-0.04 0.53 0 2.69 3.13 4.87 7 4.87s7-2.18 7-4.87c0-0.18-0.01-0.35-0.04-0.52 0.56-0.28 1-0.89 1-1.61zm-12 1.25c0-0.69 0.56-1.25 1.25-1.25s1.25 0.56 1.25 1.25-0.56 1.25-1.25 1.25-1.25-0.56-1.25-1.25zm6.98 3.3c-0.86 0.86-2.48 0.91-2.96 0.91s-2.12-0.07-2.96-0.91c-0.13-0.13-0.13-0.34 0-0.46 0.13-0.13 0.34-0.13 0.46 0 0.53 0.53 1.68 0.73 2.51 0.73s1.96-0.2 2.51-0.73c0.13-0.13 0.34-0.13 0.46 0 0.1 0.13 0.1 0.33-0.02 0.46zm-0.23-2.05c-0.69 0-1.25-0.56-1.25-1.25s0.56-1.25 1.25-1.25 1.25 0.56 1.25 1.25-0.56 1.25-1.25 1.25z"/>


</svg>
