<svg xmlns="http://www.w3.org/2000/svg" viewBox="0 0 24 24" width="24" height="24"> <path d="M 18.384 22.779 C 18.706 23.007 19.121 23.064 19.491 22.924 C 19.861 22.783 20.133 22.467 20.215 22.084 C 21.084 18 23.192 7.663 23.983 3.948 C 24.043 3.668 23.943 3.377 23.723 3.19 C 23.503 3.003 23.198 2.949 22.926 3.05 C 18.733 4.602 5.82 9.447 0.542 11.4 C 0.207 11.524 -0.011 11.846 0 12.199 C 0.012 12.553 0.25 12.86 0.593 12.963 C 2.96 13.671 6.067 14.656 6.067 14.656 C 6.067 14.656 7.519 19.041 8.276 21.271 C 8.371 21.551 8.59 21.771 8.879 21.847 C 9.167 21.922 9.475 21.843 9.69 21.64 C 10.906 20.492 12.786 18.717 12.786 18.717 C 12.786 18.717 16.358 21.336 18.384 22.779 Z M 7.374 14.102 L 9.053 19.64 L 9.426 16.133 C 9.426 16.133 15.913 10.282 19.611 6.947 C 19.719 6.849 19.734 6.685 19.644 6.57 C 19.555 6.455 19.391 6.428 19.268 6.506 C 14.982 9.243 7.374 14.102 7.374 14.102 Z" fill="#0088cc" fill-rule="evenodd"/></svg>
