<?xml version="1.0" encoding="utf-8"?>
<!-- Generator: Adobe Illustrator 27.0.0, SVG Export Plug-In . SVG Version: 6.00 Build 0)  -->
<svg version="1.1" id="Layer_1" xmlns="http://www.w3.org/2000/svg" xmlns:xlink="http://www.w3.org/1999/xlink" x="0px" y="0px"
	 viewBox="0 0 24 24" style="enable-background:new 0 0 24 24;" xml:space="preserve">
<style type="text/css">
	.st0{fill:#FF004F;}
	.st1{fill:#00F2EA;}
</style>
<g>
	<path class="st0" d="M17.12,8.66c1.55,1.11,3.45,1.76,5.5,1.76V6.48c-0.39,0-0.77-0.04-1.15-0.12v3.1c-2.05,0-3.95-0.65-5.5-1.76
		v8.05c0,4.03-3.27,7.29-7.29,7.29c-1.5,0-2.9-0.45-4.06-1.23C5.94,23.16,7.78,24,9.83,24c4.03,0,7.29-3.26,7.29-7.29V8.66
		L17.12,8.66z M18.55,4.68c-0.79-0.86-1.31-1.98-1.42-3.22V0.96h-1.09C16.3,2.53,17.24,3.87,18.55,4.68L18.55,4.68z M7.16,18.72
		c-0.44-0.58-0.68-1.29-0.68-2.02c0-1.84,1.49-3.33,3.34-3.33c0.34,0,0.68,0.05,1.01,0.16V9.49c-0.38-0.05-0.77-0.07-1.15-0.07v3.14
		c-0.33-0.1-0.67-0.16-1.01-0.16c-1.84,0-3.34,1.49-3.34,3.33C5.33,17.04,6.07,18.17,7.16,18.72z"/>
	<path d="M15.97,7.7c1.55,1.11,3.45,1.76,5.5,1.76v-3.1c-1.14-0.24-2.16-0.84-2.92-1.67c-1.3-0.81-2.24-2.15-2.52-3.72h-2.87v15.75
		c-0.01,1.84-1.5,3.32-3.34,3.32c-1.08,0-2.05-0.52-2.66-1.32c-1.09-0.55-1.83-1.68-1.83-2.98c0-1.84,1.49-3.33,3.34-3.33
		c0.35,0,0.69,0.05,1.01,0.16V9.42c-3.96,0.08-7.14,3.31-7.14,7.29c0,1.98,0.79,3.78,2.08,5.1c1.16,0.78,2.56,1.23,4.06,1.23
		c4.03,0,7.29-3.26,7.29-7.29L15.97,7.7L15.97,7.7z"/>
	<path class="st1" d="M21.47,6.36V5.52c-1.03,0-2.04-0.29-2.92-0.83C19.32,5.53,20.34,6.12,21.47,6.36z M16.03,0.96
		c-0.03-0.15-0.05-0.3-0.06-0.45V0H12v15.75c-0.01,1.84-1.5,3.32-3.34,3.32c-0.54,0-1.05-0.13-1.5-0.36
		c0.61,0.8,1.57,1.32,2.66,1.32c1.84,0,3.33-1.49,3.34-3.32V0.96H16.03z M9.67,9.42V8.53c-0.33-0.05-0.67-0.07-1-0.07
		c-4.03,0-7.29,3.26-7.29,7.29c0,2.52,1.28,4.75,3.23,6.06c-1.29-1.31-2.08-3.11-2.08-5.1C2.54,12.74,5.72,9.51,9.67,9.42z"/>
</g>
</svg>
