<?xml version="1.0" encoding="utf-8"?>
<!-- Generator: Adobe Illustrator 27.0.0, SVG Export Plug-In . SVG Version: 6.00 Build 0)  -->
<svg version="1.1" id="Layer_1" xmlns="http://www.w3.org/2000/svg" xmlns:xlink="http://www.w3.org/1999/xlink" x="0px" y="0px"
	 viewBox="0 0 24 24" style="enable-background:new 0 0 24 24;" xml:space="preserve">
<style type="text/css">
	.st0{fill:#1D9BF0;}
</style>
<path class="st0" d="M21.54,7.1c0.01,0.21,0.01,0.42,0.01,0.64c0,6.51-4.95,14.01-14.01,14.01v0c-2.68,0-5.3-0.76-7.55-2.21
	c0.39,0.05,0.78,0.07,1.17,0.07c2.22,0,4.37-0.74,6.12-2.11c-2.11-0.04-3.95-1.41-4.6-3.42c0.74,0.14,1.5,0.11,2.22-0.08
	c-2.3-0.46-3.95-2.48-3.95-4.83V9.11C1.64,9.49,2.41,9.7,3.19,9.72C1.03,8.28,0.36,5.4,1.67,3.15c2.5,3.08,6.19,4.95,10.15,5.14
	c-0.4-1.71,0.15-3.5,1.42-4.7c1.98-1.86,5.1-1.77,6.97,0.21c1.1-0.22,2.16-0.62,3.13-1.2c-0.37,1.14-1.14,2.11-2.16,2.72
	C22.15,5.21,23.1,4.95,24,4.55C23.34,5.54,22.51,6.41,21.54,7.1z"/>
</svg>
