<?xml version="1.0" encoding="UTF-8"?>
<svg enable-background="new 0 0 24 24" version="1.1" viewBox="0 0 24 24" xml:space="preserve" xmlns="http://www.w3.org/2000/svg">
<style type="text/css">
	.st0{fill:#1D9BF0;}
</style>
	<path class="st0" d="m21.54 7.1c0.01 0.21 0.01 0.42 0.01 0.64 0 6.51-4.95 14.01-14.01 14.01-2.68 0-5.3-0.76-7.55-2.21 0.39 0.05 0.78 0.07 1.17 0.07 2.22 0 4.37-0.74 6.12-2.11-2.11-0.04-3.95-1.41-4.6-3.42 0.74 0.14 1.5 0.11 2.22-0.08-2.3-0.46-3.95-2.48-3.95-4.83v-0.06c0.69 0.38 1.46 0.59 2.24 0.61-2.16-1.44-2.83-4.32-1.52-6.57 2.5 3.08 6.19 4.95 10.15 5.14-0.4-1.71 0.15-3.5 1.42-4.7 1.98-1.86 5.1-1.77 6.97 0.21 1.1-0.22 2.16-0.62 3.13-1.2-0.37 1.14-1.14 2.11-2.16 2.72 0.97-0.11 1.92-0.37 2.82-0.77-0.66 0.99-1.49 1.86-2.46 2.55z"/>
</svg>
