<?xml version="1.0" encoding="UTF-8"?>
<svg viewBox="0 0 24 24" xmlns="http://www.w3.org/2000/svg">
    <path d="m11.255 0.024c-2.535 0.149-4.958 1.1-6.918 2.713-1.961 1.613-3.36 3.808-3.994 6.266-0.635 2.459-0.473 5.056 0.461 7.417 0.935 2.361 2.595 4.365 4.74 5.723s4.667 2.001 7.201 1.835c2.535-0.15 4.958-1.1 6.918-2.713 1.961-1.614 3.36-3.808 3.994-6.267 0.635-2.458 0.473-5.056-0.461-7.417-0.935-2.36-2.595-4.365-4.74-5.723-2.146-1.357-4.668-2-7.201-1.834z" fill="#1a202e"/>
    <path d="m10.77 16.39 5.43-3.95c0.33-0.24 0.33-0.64 0-0.88l-5.43-3.95c-0.16-0.12-0.27-0.29-0.3-0.49s0.02-0.4 0.13-0.56c0.12-0.16 0.29-0.27 0.49-0.3s0.4 0.02 0.56 0.13l6.9 5.02c0.45 0.32 0.45 0.85 0 1.18l-6.9 5.02c-0.16 0.12-0.36 0.17-0.56 0.14s-0.37-0.14-0.49-0.3-0.16-0.36-0.13-0.56c0.03-0.21 0.14-0.38 0.3-0.5z" fill="#ff4151"/>
    <path d="m7.71 17.2 5.96-4.2c0.78-0.55 0.78-1.45 0-2l-5.96-4.2c-0.78-0.55-1.41-0.23-1.41 0.73v8.94c0 0.96 0.63 1.28 1.41 0.73z" fill="#e5e9f0"/>
</svg>