<svg
    xmlns="http://www.w3.org/2000/svg"
    viewBox="0 0 24 24"
    id="vector">
    <path
        id="path"
        d="M 11.255 0.024 C 8.72 0.173 6.297 1.124 4.337 2.737 C 2.376 4.35 0.977 6.545 0.343 9.003 C -0.292 11.462 -0.13 14.059 0.804 16.42 C 1.739 18.781 3.399 20.785 5.544 22.143 C 7.689 23.501 10.211 24.144 12.745 23.978 C 15.28 23.828 17.703 22.878 19.663 21.265 C 21.624 19.651 23.023 17.457 23.657 14.998 C 24.292 12.54 24.13 9.942 23.196 7.581 C 22.261 5.221 20.601 3.216 18.456 1.858 C 16.31 0.501 13.788 -0.142 11.255 0.024 Z"
        fill="#1a202e"
        stroke-width="1"/>
    <path
        id="svgid_1_"
        d="M 19.45 12 C 19.45 14.85 17.14 17.16 14.29 17.16 C 12.87 17.16 11.58 16.59 10.65 15.66 L 13.02 13.99 C 13.39 14.23 13.83 14.36 14.29 14.36 C 15.59 14.36 16.65 13.3 16.65 12 C 16.65 10.7 15.59 9.64 14.29 9.64 C 13.82 9.64 13.38 9.78 13.02 10.01 L 10.65 8.34 C 11.58 7.41 12.87 6.84 14.29 6.84 C 17.14 6.84 19.45 9.15 19.45 12 Z M 14.3 11.45 C 13.99 11.45 13.75 11.7 13.75 12 C 13.75 12.3 14 12.55 14.3 12.55 C 14.61 12.55 14.85 12.3 14.85 12 C 14.85 11.69 14.6 11.45 14.3 11.45 Z"
        fill="#ff4151"
        stroke-width="1"/>
    <path
        id="path_1"
        d="M 7.03 16.91 L 12.65 12.95 C 13.39 12.43 13.39 11.59 12.65 11.07 L 7.03 7.09 C 6.3 6.57 5.7 6.88 5.7 7.78 L 5.7 16.21 C 5.7 17.12 6.3 17.43 7.03 16.91 Z"
        fill="#e5e9f0"
        stroke-width="1"/>
</svg>
