<?xml version="1.0" encoding="UTF-8"?>
<svg viewBox="0 0 24 24" xmlns="http://www.w3.org/2000/svg">
    <path d="m11.255 0.024c-2.535 0.149-4.958 1.1-6.918 2.713-1.961 1.613-3.36 3.808-3.994 6.266-0.635 2.459-0.473 5.056 0.461 7.417 0.935 2.361 2.595 4.365 4.74 5.723s4.667 2.001 7.201 1.835c2.535-0.15 4.958-1.1 6.918-2.713 1.961-1.614 3.36-3.808 3.994-6.267 0.635-2.458 0.473-5.056-0.461-7.417-0.935-2.36-2.595-4.365-4.74-5.723-2.146-1.357-4.668-2-7.201-1.834z" fill="#1a202e"/>
    <path d="m19.45 12c0 2.85-2.31 5.16-5.16 5.16-1.42 0-2.71-0.57-3.64-1.5l2.37-1.67c0.37 0.24 0.81 0.37 1.27 0.37 1.3 0 2.36-1.06 2.36-2.36s-1.06-2.36-2.36-2.36c-0.47 0-0.91 0.14-1.27 0.37l-2.37-1.67c0.93-0.93 2.22-1.5 3.64-1.5 2.85 0 5.16 2.31 5.16 5.16zm-5.15-0.55c-0.31 0-0.55 0.25-0.55 0.55s0.25 0.55 0.55 0.55c0.31 0 0.55-0.25 0.55-0.55 0-0.31-0.25-0.55-0.55-0.55z" fill="#ff4151"/>
    <path d="m7.03 16.91 5.62-3.96c0.74-0.52 0.74-1.36 0-1.88l-5.62-3.98c-0.73-0.52-1.33-0.21-1.33 0.69v8.43c0 0.91 0.6 1.22 1.33 0.7z" fill="#e5e9f0"/>
</svg>
